# xmcd
#
# Track frame offsets:
#	150
#	21705
#	39474
#	61029
#
# Disc length: 1047 seconds
#
# Revision: 0
# Processed by: cddbd v1.5.2PL0 Copyright (c) Steve Scherf et al.
# Submitted via: audiograbber 1.82.02
#
DISCID=2e041504
DTITLE=Azu - I Will
DYEAR=2009
DGENRE=JPop
TTITLE0=I Will
TTITLE1=Close To You
TTITLE2=I Will (Instrumental)
TTITLE3=Close To You (Instrumental)
EXTD=
EXTT0=
EXTT1=
EXTT2=
EXTT3=
PLAYORDER=
